<svg width="1280" height="640" viewBox="0 0 1280 640" fill="none" xmlns="http://www.w3.org/2000/svg">
<g id="propr">
<g id="Header" clip-path="url(#clip0_1_254)">
<rect width="1280" height="640" fill="black"/>
<g id="Blob" filter="url(#filter0_f_1_254)">
<path id="Vector" d="M1326.5 623.968C1244.85 678.738 1130.02 690.778 1056.7 638.556C983.384 586.334 898.625 417.105 886.596 310.635C874.567 204.166 903.861 49.6318 984.525 -0.260078C1065.19 -50.1519 1276.91 -40.415 1370.58 11.2844C1464.26 62.9839 1553.92 207.823 1546.58 309.937" fill="url(#paint0_linear_1_254)"/>
</g>
</g>
<g id="center">
<g id="Content">
<g id="Head" clip-path="url(#clip1_1_254)">
<path id="@2digits/cli" d="M91.36 249C96.0267 249 99.2 250.533 100.88 253.6C102.587 256.64 103.44 260.64 103.44 265.6C103.44 269.173 103.28 272.04 102.96 274.2C102.64 276.333 102.053 277.933 101.2 279C100.347 280.093 99.1333 280.64 97.56 280.64C96.52 280.64 95.64 280.32 94.92 279.68C94.2 279.04 93.6667 278.267 93.32 277.36C92.9733 276.48 92.8133 275.667 92.84 274.92H92.68C91.6133 277.533 89.7867 278.84 87.2 278.84C85.12 278.84 83.6 278.027 82.64 276.4C81.68 274.747 81.2 272.507 81.2 269.68C81.2 266.24 81.8667 263.667 83.2 261.96C84.56 260.227 86.5067 259.36 89.04 259.36C90.0267 259.36 90.9467 259.467 91.8 259.68C92.6533 259.893 93.6133 260.28 94.68 260.84V272.68C94.68 274.653 94.92 276.027 95.4 276.8C95.9067 277.547 96.6 277.92 97.48 277.92C98.2533 277.92 98.8133 277.44 99.16 276.48C99.5333 275.493 99.76 274.24 99.84 272.72C99.92 271.173 99.96 269.027 99.96 266.28C99.96 263.24 99.7467 260.707 99.32 258.68C98.92 256.627 98.0933 255 96.84 253.8C95.5867 252.573 93.7733 251.96 91.4 251.96C89.88 251.96 88.3733 252.227 86.88 252.76C85.3867 253.293 83.8667 254.253 82.32 255.64L80.36 253.36C82.0933 251.867 83.8933 250.773 85.76 250.08C87.6267 249.36 89.4933 249 91.36 249ZM89.16 261.84C87.4 261.84 86.1733 262.467 85.48 263.72C84.7867 264.973 84.44 266.96 84.44 269.68C84.44 271.787 84.68 273.427 85.16 274.6C85.64 275.747 86.4533 276.32 87.6 276.32C88.4533 276.32 89.1467 276.133 89.68 275.76C90.24 275.36 90.64 274.947 90.88 274.52C91.1467 274.067 91.4267 273.493 91.72 272.8V262.4C90.9467 262.027 90.0933 261.84 89.16 261.84ZM114.744 249C116.424 249 117.891 249.333 119.144 250C120.424 250.667 121.398 251.587 122.064 252.76C122.731 253.907 123.064 255.213 123.064 256.68C123.064 258.387 122.664 260.04 121.864 261.64C121.091 263.24 119.838 265 118.104 266.92C116.371 268.813 113.918 271.213 110.744 274.12H123.704L123.304 277H106.904V274.28C110.504 270.84 113.171 268.147 114.904 266.2C116.664 264.253 117.878 262.587 118.544 261.2C119.211 259.813 119.544 258.347 119.544 256.8C119.544 255.253 119.104 254.04 118.224 253.16C117.344 252.28 116.131 251.84 114.584 251.84C113.278 251.84 112.184 252.067 111.304 252.52C110.451 252.947 109.571 253.693 108.664 254.76L106.344 252.96C107.438 251.6 108.651 250.6 109.984 249.96C111.344 249.32 112.931 249 114.744 249ZM147.969 247.44V277H145.009L144.689 274.24C143.915 275.307 143.022 276.107 142.009 276.64C140.995 277.173 139.902 277.44 138.729 277.44C136.062 277.44 134.049 276.467 132.689 274.52C131.355 272.573 130.689 269.893 130.689 266.48C130.689 264.373 131.022 262.493 131.689 260.84C132.355 259.16 133.302 257.853 134.529 256.92C135.782 255.96 137.249 255.48 138.929 255.48C141.249 255.48 143.142 256.32 144.609 258V247.04L147.969 247.44ZM139.809 258.2C138.049 258.2 136.689 258.893 135.729 260.28C134.795 261.667 134.329 263.733 134.329 266.48C134.329 269.2 134.755 271.267 135.609 272.68C136.489 274.067 137.755 274.76 139.409 274.76C141.409 274.76 143.142 273.64 144.609 271.4V260.92C144.022 260.04 143.315 259.373 142.489 258.92C141.662 258.44 140.769 258.2 139.809 258.2ZM163.953 246.08C164.7 246.08 165.3 246.307 165.753 246.76C166.206 247.187 166.433 247.747 166.433 248.44C166.433 249.133 166.206 249.707 165.753 250.16C165.3 250.587 164.7 250.8 163.953 250.8C163.233 250.8 162.646 250.587 162.193 250.16C161.766 249.707 161.553 249.133 161.553 248.44C161.553 247.747 161.766 247.187 162.193 246.76C162.646 246.307 163.233 246.08 163.953 246.08ZM166.633 274.32H172.553V277H156.793V274.32H163.273V258.6H156.993V255.92H166.633V274.32ZM198.098 256.88C197.298 257.147 196.431 257.32 195.498 257.4C194.564 257.453 193.378 257.48 191.938 257.48C194.391 258.6 195.618 260.373 195.618 262.8C195.618 264.933 194.911 266.667 193.498 268C192.084 269.307 190.151 269.96 187.697 269.96C186.444 269.96 185.391 269.813 184.538 269.52C184.218 269.76 183.951 270.067 183.738 270.44C183.551 270.813 183.458 271.187 183.458 271.56C183.458 272.76 184.391 273.36 186.258 273.36H190.058C191.444 273.36 192.698 273.613 193.818 274.12C194.964 274.6 195.858 275.28 196.497 276.16C197.164 277.04 197.498 278.013 197.498 279.08C197.498 281.133 196.618 282.707 194.858 283.8C193.124 284.92 190.658 285.48 187.458 285.48C184.204 285.48 181.911 284.973 180.578 283.96C179.244 282.947 178.577 281.333 178.577 279.12H181.618C181.618 280 181.778 280.693 182.098 281.2C182.444 281.733 183.031 282.12 183.858 282.36C184.711 282.627 185.911 282.76 187.458 282.76C189.724 282.76 191.391 282.467 192.458 281.88C193.551 281.293 194.098 280.427 194.098 279.28C194.098 278.32 193.658 277.573 192.778 277.04C191.898 276.533 190.764 276.28 189.378 276.28H185.618C183.884 276.28 182.564 275.907 181.658 275.16C180.751 274.387 180.298 273.427 180.298 272.28C180.298 271.613 180.498 270.96 180.898 270.32C181.298 269.653 181.871 269.08 182.618 268.6C181.418 267.987 180.524 267.213 179.938 266.28C179.378 265.32 179.098 264.16 179.098 262.8C179.098 261.387 179.444 260.133 180.138 259.04C180.858 257.92 181.844 257.053 183.098 256.44C184.378 255.8 185.844 255.48 187.498 255.48C189.898 255.48 191.724 255.347 192.978 255.08C194.231 254.813 195.604 254.36 197.098 253.72L198.098 256.88ZM187.458 257.96C185.831 257.96 184.604 258.4 183.778 259.28C182.951 260.133 182.538 261.307 182.538 262.8C182.538 264.293 182.951 265.493 183.778 266.4C184.631 267.28 185.884 267.72 187.538 267.72C189.031 267.72 190.164 267.293 190.938 266.44C191.738 265.56 192.138 264.333 192.138 262.76C192.138 259.56 190.578 257.96 187.458 257.96ZM211.922 246.08C212.669 246.08 213.269 246.307 213.722 246.76C214.175 247.187 214.402 247.747 214.402 248.44C214.402 249.133 214.175 249.707 213.722 250.16C213.269 250.587 212.669 250.8 211.922 250.8C211.202 250.8 210.615 250.587 210.162 250.16C209.735 249.707 209.522 249.133 209.522 248.44C209.522 247.747 209.735 247.187 210.162 246.76C210.615 246.307 211.202 246.08 211.922 246.08ZM214.602 274.32H220.522V277H204.762V274.32H211.242V258.6H204.962V255.92H214.602V274.32ZM244.666 275.92C243.946 276.4 243.066 276.773 242.026 277.04C241.013 277.307 240 277.44 238.986 277.44C236.773 277.44 235.04 276.867 233.786 275.72C232.533 274.547 231.906 273.013 231.906 271.12V258.56H227.066V255.92H231.906V251.16L235.266 250.76V255.92H242.586L242.146 258.56H235.266V271.08C235.266 272.28 235.586 273.173 236.226 273.76C236.866 274.347 237.893 274.64 239.306 274.64C240.746 274.64 242.093 274.307 243.346 273.64L244.666 275.92ZM259.091 274.68C260.691 274.68 261.957 274.373 262.891 273.76C263.824 273.147 264.291 272.333 264.291 271.32C264.291 270.627 264.171 270.067 263.931 269.64C263.691 269.187 263.211 268.787 262.491 268.44C261.771 268.067 260.677 267.693 259.211 267.32C256.757 266.707 254.944 265.973 253.771 265.12C252.597 264.24 252.011 262.947 252.011 261.24C252.011 259.48 252.744 258.08 254.211 257.04C255.677 256 257.611 255.48 260.011 255.48C262.944 255.48 265.504 256.253 267.691 257.8L266.171 260.12C265.291 259.507 264.371 259.04 263.411 258.72C262.451 258.373 261.344 258.2 260.091 258.2C257.051 258.2 255.531 259.12 255.531 260.96C255.531 261.6 255.691 262.12 256.011 262.52C256.357 262.92 256.904 263.28 257.651 263.6C258.424 263.893 259.571 264.253 261.091 264.68C263.384 265.293 265.091 266.08 266.211 267.04C267.357 267.973 267.931 269.347 267.931 271.16C267.931 273.267 267.077 274.84 265.371 275.88C263.664 276.92 261.571 277.44 259.091 277.44C255.784 277.44 253.037 276.493 250.851 274.6L252.731 272.4C253.584 273.093 254.557 273.653 255.651 274.08C256.744 274.48 257.891 274.68 259.091 274.68ZM273.995 279.92L291.075 244.64L293.755 245.92L276.715 281.12L273.995 279.92ZM309.299 255.48C314.393 255.48 316.939 259.133 316.939 266.44C316.939 269.773 316.246 272.44 314.859 274.44C313.473 276.44 311.459 277.44 308.819 277.44C306.526 277.44 304.659 276.64 303.219 275.04V285.08L299.859 285.48V255.92H302.739L303.019 258.88C303.793 257.787 304.713 256.947 305.779 256.36C306.873 255.773 308.046 255.48 309.299 255.48ZM308.499 258.2C307.433 258.2 306.446 258.52 305.539 259.16C304.659 259.8 303.886 260.6 303.219 261.56V272C303.779 272.827 304.473 273.48 305.299 273.96C306.153 274.413 307.073 274.64 308.059 274.64C309.819 274.64 311.126 273.973 311.979 272.64C312.859 271.28 313.299 269.213 313.299 266.44C313.299 263.667 312.913 261.6 312.139 260.24C311.366 258.88 310.153 258.2 308.499 258.2ZM338.084 255.48C338.937 255.48 339.924 255.627 341.044 255.92L340.564 263.08H337.844V258.56H337.644C334.39 258.56 332.084 260.88 330.724 265.52V274.4H335.004V277H324.044V274.4H327.364V258.52H324.044V255.92H329.884L330.524 260.92C331.377 259.107 332.39 257.747 333.564 256.84C334.764 255.933 336.27 255.48 338.084 255.48ZM355.868 255.48C358.775 255.48 361.001 256.467 362.548 258.44C364.121 260.387 364.908 263.053 364.908 266.44C364.908 269.747 364.108 272.413 362.508 274.44C360.935 276.44 358.708 277.44 355.828 277.44C352.921 277.44 350.681 276.467 349.108 274.52C347.535 272.547 346.748 269.867 346.748 266.48C346.748 263.147 347.535 260.48 349.108 258.48C350.708 256.48 352.961 255.48 355.868 255.48ZM355.868 258.24C354.028 258.24 352.655 258.92 351.748 260.28C350.841 261.64 350.388 263.707 350.388 266.48C350.388 269.253 350.828 271.32 351.708 272.68C352.615 274.013 353.988 274.68 355.828 274.68C357.668 274.68 359.028 274.013 359.908 272.68C360.815 271.32 361.268 269.24 361.268 266.44C361.268 263.667 360.815 261.613 359.908 260.28C359.028 258.92 357.681 258.24 355.868 258.24ZM381.253 255.48C386.346 255.48 388.893 259.133 388.893 266.44C388.893 269.773 388.199 272.44 386.813 274.44C385.426 276.44 383.413 277.44 380.773 277.44C378.479 277.44 376.613 276.64 375.173 275.04V285.08L371.813 285.48V255.92H374.693L374.973 258.88C375.746 257.787 376.666 256.947 377.733 256.36C378.826 255.773 379.999 255.48 381.253 255.48ZM380.453 258.2C379.386 258.2 378.399 258.52 377.493 259.16C376.613 259.8 375.839 260.6 375.173 261.56V272C375.733 272.827 376.426 273.48 377.253 273.96C378.106 274.413 379.026 274.64 380.013 274.64C381.773 274.64 383.079 273.973 383.933 272.64C384.813 271.28 385.253 269.213 385.253 266.44C385.253 263.667 384.866 261.6 384.093 260.24C383.319 258.88 382.106 258.2 380.453 258.2ZM410.037 255.48C410.89 255.48 411.877 255.627 412.997 255.92L412.517 263.08H409.797V258.56H409.597C406.344 258.56 404.037 260.88 402.677 265.52V274.4H406.957V277H395.997V274.4H399.317V258.52H395.997V255.92H401.837L402.477 260.92C403.33 259.107 404.344 257.747 405.517 256.84C406.717 255.933 408.224 255.48 410.037 255.48Z" fill="white"/>
<g id="Logo">
<g id="Logo_2">
<path fill-rule="evenodd" clip-rule="evenodd" d="M1043.05 240.778L1037.46 285.984C1037.45 286.109 1037.46 286.236 1037.5 286.356C1037.53 286.477 1037.6 286.588 1037.68 286.682C1037.76 286.776 1037.87 286.851 1037.98 286.903C1038.1 286.954 1038.22 286.981 1038.35 286.98H1044.51C1044.73 286.981 1044.94 286.902 1045.1 286.758C1045.27 286.614 1045.37 286.416 1045.4 286.2L1050.99 240.995C1051 240.87 1050.99 240.743 1050.95 240.623C1050.92 240.503 1050.85 240.392 1050.77 240.298C1050.69 240.204 1050.58 240.129 1050.47 240.077C1050.35 240.026 1050.23 240 1050.1 240H1043.94C1043.72 239.999 1043.51 240.078 1043.35 240.221C1043.19 240.365 1043.08 240.563 1043.05 240.778ZM1109.72 240.778L1104.13 285.984C1104.11 286.109 1104.12 286.236 1104.16 286.356C1104.2 286.477 1104.26 286.588 1104.34 286.682C1104.43 286.776 1104.53 286.851 1104.65 286.903C1104.76 286.954 1104.89 286.981 1105.01 286.98H1111.17C1111.39 286.981 1111.6 286.902 1111.77 286.758C1111.93 286.614 1112.03 286.416 1112.06 286.2L1117.65 240.995C1117.67 240.87 1117.66 240.743 1117.62 240.623C1117.58 240.503 1117.52 240.392 1117.44 240.298C1117.35 240.204 1117.25 240.129 1117.13 240.077C1117.02 240.026 1116.89 240 1116.77 240H1110.61C1110.39 239.999 1110.18 240.078 1110.02 240.221C1109.85 240.365 1109.75 240.563 1109.72 240.778ZM951.206 285.916V281.536C951.206 281.05 951.386 280.63 951.752 280.275C953.894 278.065 957.472 274.127 962.487 268.466L966.863 263.555C971.057 258.822 973.155 255.24 973.155 252.807C973.155 250.992 972.493 249.511 971.171 248.36C969.849 247.211 968.139 246.635 966.043 246.635C963.946 246.635 962.248 247.211 960.949 248.36C959.65 249.511 959.001 251.037 959.001 252.938V254.399C959.001 255.106 958.636 255.459 957.906 255.459H952.096C951.364 255.46 951 255.108 951 254.401V251.811C951.092 249.423 951.798 247.344 953.121 245.574C954.442 243.805 956.231 242.434 958.488 241.46C960.744 240.487 963.262 240 966.043 240C969.097 240 971.763 240.553 974.043 241.66C976.323 242.766 978.077 244.281 979.309 246.205C980.539 248.128 981.154 250.285 981.154 252.672C981.154 256.3 979.171 260.481 975.207 265.212C973.533 267.276 971.8 269.29 970.009 271.253C968.015 273.452 966.01 275.641 963.993 277.82L962.077 279.877C961.941 280.01 961.894 280.122 961.941 280.209C961.986 280.298 962.1 280.342 962.283 280.342H981.154C981.883 280.342 982.248 280.696 982.248 281.403V285.916C982.248 286.623 981.884 286.977 981.156 286.977H952.298C951.568 286.977 951.204 286.623 951.204 285.916M993.707 285.905V241.075C993.707 240.359 994.078 240 994.82 240H1011.52C1014.81 240 1017.71 240.56 1020.22 241.676C1022.72 242.796 1024.66 244.396 1026.03 246.475C1027.4 248.556 1028.08 250.984 1028.08 253.757V273.22C1028.08 275.995 1027.4 278.421 1026.03 280.5C1024.66 282.581 1022.72 284.181 1020.22 285.299C1017.71 286.419 1014.81 286.977 1011.52 286.977H994.822C994.079 286.977 993.709 286.618 993.709 285.903M1002.2 280.266H1011.87C1014.33 280.266 1016.29 279.518 1017.75 278.017C1019.21 276.52 1019.96 274.518 1020.01 272.012V255.033C1020.01 252.483 1019.27 250.459 1017.78 248.958C1016.3 247.461 1014.3 246.711 1011.8 246.711H1002.2C1001.92 246.711 1001.78 246.845 1001.78 247.114V279.863C1001.78 280.132 1001.92 280.266 1002.2 280.266Z" fill="white"/>
<path fill-rule="evenodd" clip-rule="evenodd" d="M1068.55 286.02C1065.94 284.703 1063.92 282.836 1062.5 280.422C1061.08 278.009 1060.37 275.239 1060.37 272.111V255.887C1060.37 252.715 1061.08 249.932 1062.5 247.543C1063.92 245.155 1065.94 243.299 1068.55 241.98C1071.16 240.661 1074.19 240 1077.63 240C1081.02 240 1084.01 240.648 1086.6 241.945C1089.19 243.242 1091.19 245.006 1092.62 247.239C1094.04 249.475 1094.75 252 1094.75 254.815V255.084C1094.75 255.799 1094.38 256.156 1093.65 256.156H1087.94C1087.62 256.156 1087.35 256.101 1087.15 255.988C1086.94 255.878 1086.84 255.732 1086.84 255.552V255.016C1086.84 252.603 1086 250.615 1084.33 249.051C1082.66 247.486 1080.42 246.705 1077.63 246.705C1074.83 246.705 1072.59 247.519 1070.89 249.151C1069.19 250.783 1068.35 252.938 1068.35 255.618V272.378C1068.35 275.06 1069.24 277.217 1071.03 278.848C1072.82 280.479 1075.13 281.294 1077.97 281.294C1080.72 281.294 1082.89 280.59 1084.47 279.183C1086.05 277.775 1086.84 275.841 1086.84 273.384V269.295C1086.84 269.026 1086.7 268.893 1086.43 268.893H1078.32C1077.58 268.893 1077.22 268.536 1077.22 267.82V263.395C1077.22 262.682 1077.58 262.323 1078.32 262.323H1093.65C1094.38 262.323 1094.75 262.682 1094.75 263.395V271.71C1094.75 276.849 1093.2 280.849 1090.11 283.707C1087.01 286.569 1082.85 287.998 1077.63 287.998C1074.19 287.998 1071.17 287.339 1068.55 286.02" fill="white"/>
<path fill-rule="evenodd" clip-rule="evenodd" d="M1160.37 242.095V246.725C1160.37 247.442 1160 247.799 1159.26 247.799H1146.85C1146.58 247.799 1146.44 247.933 1146.44 248.202V286.925C1146.44 287.639 1146.07 288 1145.33 288H1139.51C1138.77 288 1138.4 287.639 1138.4 286.925V248.202C1138.4 247.933 1138.26 247.799 1137.98 247.799H1126.06C1125.32 247.799 1124.95 247.442 1124.95 246.725V242.095C1124.95 241.38 1125.32 241.02 1126.06 241.02H1159.26C1160 241.02 1160.37 241.38 1160.37 242.095ZM1173.77 286.322C1171.14 285.206 1169.12 283.631 1167.7 281.594C1166.28 279.562 1165.58 277.205 1165.58 274.524V273.117C1165.58 272.402 1165.94 272.042 1166.67 272.042H1172.3C1173.03 272.042 1173.4 272.378 1173.4 273.049V274.121C1173.4 276.177 1174.32 277.888 1176.18 279.249C1178.03 280.614 1180.49 281.294 1183.55 281.294C1186.34 281.294 1188.44 280.713 1189.86 279.551C1191.28 278.389 1191.99 276.895 1191.99 275.06C1191.99 273.81 1191.6 272.747 1190.82 271.876C1190.05 271.006 1188.94 270.211 1187.5 269.496C1186.06 268.781 1183.89 267.888 1181.01 266.815C1177.76 265.653 1175.13 264.559 1173.12 263.53C1171.15 262.533 1169.42 261.1 1168.08 259.339C1166.73 257.576 1166.06 255.375 1166.06 252.736C1166.06 248.805 1167.52 245.699 1170.45 243.419C1173.37 241.139 1177.28 240 1182.18 240C1185.61 240 1188.64 240.582 1191.27 241.743C1193.9 242.906 1195.95 244.526 1197.41 246.603C1198.87 248.681 1199.61 251.083 1199.61 253.809V254.679C1199.61 255.397 1199.24 255.754 1198.51 255.754H1192.88C1192.6 255.767 1192.32 255.684 1192.09 255.519C1191.89 255.362 1191.78 255.172 1191.78 254.949V254.211C1191.78 252.111 1190.9 250.335 1189.14 248.882C1187.38 247.43 1184.95 246.703 1181.84 246.703C1179.32 246.703 1177.37 247.217 1175.97 248.245C1174.57 249.273 1173.88 250.726 1173.88 252.603C1173.88 253.944 1174.24 255.038 1174.97 255.887C1175.71 256.736 1176.8 257.508 1178.27 258.201C1179.73 258.893 1182 259.776 1185.06 260.849C1188.31 262.054 1190.9 263.15 1192.85 264.134C1194.8 265.125 1196.51 266.532 1197.86 268.256C1199.25 270.021 1199.95 272.222 1199.95 274.858C1199.95 277.451 1199.26 279.744 1197.89 281.73C1196.52 283.719 1194.55 285.261 1191.99 286.355C1189.43 287.451 1186.41 288 1182.93 288C1179.46 288 1176.4 287.44 1173.77 286.322Z" fill="white"/>
</g>
</g>
</g>
<path id="Setup a new project with ease" d="M85.796 384.664L83.816 391H80.72L88.82 366.196H92.78L100.844 391H97.604L95.624 384.664H85.796ZM94.796 382.072L90.728 368.86L86.624 382.072H94.796ZM135.268 371.632C139.852 371.632 142.144 374.92 142.144 381.496C142.144 384.496 141.52 386.896 140.272 388.696C139.024 390.496 137.212 391.396 134.836 391.396C132.772 391.396 131.092 390.676 129.796 389.236V398.272L126.772 398.632V372.028H129.364L129.616 374.692C130.312 373.708 131.14 372.952 132.1 372.424C133.084 371.896 134.14 371.632 135.268 371.632ZM134.548 374.08C133.588 374.08 132.7 374.368 131.884 374.944C131.092 375.52 130.396 376.24 129.796 377.104V386.5C130.3 387.244 130.924 387.832 131.668 388.264C132.436 388.672 133.264 388.876 134.152 388.876C135.736 388.876 136.912 388.276 137.68 387.076C138.472 385.852 138.868 383.992 138.868 381.496C138.868 379 138.52 377.14 137.824 375.916C137.128 374.692 136.036 374.08 134.548 374.08ZM161.174 371.632C161.942 371.632 162.83 371.764 163.838 372.028L163.406 378.472H160.958V374.404H160.778C157.85 374.404 155.774 376.492 154.55 380.668V388.66H158.402V391H148.538V388.66H151.526V374.368H148.538V372.028H153.794L154.37 376.528C155.138 374.896 156.05 373.672 157.106 372.856C158.186 372.04 159.542 371.632 161.174 371.632ZM177.18 371.632C179.796 371.632 181.8 372.52 183.192 374.296C184.608 376.048 185.316 378.448 185.316 381.496C185.316 384.472 184.596 386.872 183.156 388.696C181.74 390.496 179.736 391.396 177.144 391.396C174.528 391.396 172.512 390.52 171.096 388.768C169.68 386.992 168.972 384.58 168.972 381.532C168.972 378.532 169.68 376.132 171.096 374.332C172.536 372.532 174.564 371.632 177.18 371.632ZM177.18 374.116C175.524 374.116 174.288 374.728 173.472 375.952C172.656 377.176 172.248 379.036 172.248 381.532C172.248 384.028 172.644 385.888 173.436 387.112C174.252 388.312 175.488 388.912 177.144 388.912C178.8 388.912 180.024 388.312 180.816 387.112C181.632 385.888 182.04 384.016 182.04 381.496C182.04 379 181.632 377.152 180.816 375.952C180.024 374.728 178.812 374.116 177.18 374.116ZM200.026 371.632C204.61 371.632 206.902 374.92 206.902 381.496C206.902 384.496 206.278 386.896 205.03 388.696C203.782 390.496 201.97 391.396 199.594 391.396C197.53 391.396 195.85 390.676 194.554 389.236V398.272L191.53 398.632V372.028H194.122L194.374 374.692C195.07 373.708 195.898 372.952 196.858 372.424C197.842 371.896 198.898 371.632 200.026 371.632ZM199.306 374.08C198.346 374.08 197.458 374.368 196.642 374.944C195.85 375.52 195.154 376.24 194.554 377.104V386.5C195.058 387.244 195.682 387.832 196.426 388.264C197.194 388.672 198.022 388.876 198.91 388.876C200.494 388.876 201.67 388.276 202.438 387.076C203.23 385.852 203.626 383.992 203.626 381.496C203.626 379 203.278 377.14 202.582 375.916C201.886 374.692 200.794 374.08 199.306 374.08ZM215.528 382.576C215.6 384.664 216.14 386.236 217.148 387.292C218.18 388.348 219.476 388.876 221.036 388.876C221.972 388.876 222.824 388.744 223.592 388.48C224.384 388.192 225.224 387.76 226.112 387.184L227.516 389.2C226.628 389.896 225.608 390.436 224.456 390.82C223.328 391.204 222.188 391.396 221.036 391.396C218.3 391.396 216.164 390.508 214.628 388.732C213.116 386.932 212.36 384.532 212.36 381.532C212.36 379.636 212.696 377.944 213.368 376.456C214.04 374.944 215 373.768 216.248 372.928C217.496 372.064 218.948 371.632 220.604 371.632C223.004 371.632 224.888 372.472 226.256 374.152C227.648 375.808 228.344 378.076 228.344 380.956C228.344 381.508 228.32 382.048 228.272 382.576H215.528ZM220.64 374.116C219.176 374.116 217.988 374.644 217.076 375.7C216.164 376.732 215.648 378.256 215.528 380.272H225.392C225.368 378.28 224.936 376.756 224.096 375.7C223.256 374.644 222.104 374.116 220.64 374.116ZM247.518 371.632C248.286 371.632 249.174 371.764 250.182 372.028L249.75 378.472H247.302V374.404H247.122C244.194 374.404 242.118 376.492 240.894 380.668V388.66H244.746V391H234.882V388.66H237.87V374.368H234.882V372.028H240.138L240.714 376.528C241.482 374.896 242.394 373.672 243.45 372.856C244.53 372.04 245.886 371.632 247.518 371.632ZM284.353 388.912C285.793 388.912 286.933 388.636 287.773 388.084C288.613 387.532 289.033 386.8 289.033 385.888C289.033 385.264 288.925 384.76 288.709 384.376C288.493 383.968 288.061 383.608 287.413 383.296C286.765 382.96 285.781 382.624 284.461 382.288C282.253 381.736 280.621 381.076 279.565 380.308C278.509 379.516 277.981 378.352 277.981 376.816C277.981 375.232 278.641 373.972 279.961 373.036C281.281 372.1 283.021 371.632 285.181 371.632C287.821 371.632 290.125 372.328 292.093 373.72L290.725 375.808C289.933 375.256 289.105 374.836 288.241 374.548C287.377 374.236 286.381 374.08 285.253 374.08C282.517 374.08 281.149 374.908 281.149 376.564C281.149 377.14 281.293 377.608 281.581 377.968C281.893 378.328 282.385 378.652 283.057 378.94C283.753 379.204 284.785 379.528 286.153 379.912C288.217 380.464 289.753 381.172 290.761 382.036C291.793 382.876 292.309 384.112 292.309 385.744C292.309 387.64 291.541 389.056 290.005 389.992C288.469 390.928 286.585 391.396 284.353 391.396C281.377 391.396 278.905 390.544 276.937 388.84L278.629 386.86C279.397 387.484 280.273 387.988 281.257 388.372C282.241 388.732 283.273 388.912 284.353 388.912ZM313.859 364.396V391H311.195L310.907 388.516C310.211 389.476 309.407 390.196 308.495 390.676C307.583 391.156 306.599 391.396 305.543 391.396C303.143 391.396 301.331 390.52 300.107 388.768C298.907 387.016 298.307 384.604 298.307 381.532C298.307 379.636 298.607 377.944 299.207 376.456C299.807 374.944 300.659 373.768 301.763 372.928C302.891 372.064 304.211 371.632 305.723 371.632C307.811 371.632 309.515 372.388 310.835 373.9V364.036L313.859 364.396ZM306.515 374.08C304.931 374.08 303.707 374.704 302.843 375.952C302.003 377.2 301.583 379.06 301.583 381.532C301.583 383.98 301.967 385.84 302.735 387.112C303.527 388.36 304.667 388.984 306.155 388.984C307.955 388.984 309.515 387.976 310.835 385.96V376.528C310.307 375.736 309.671 375.136 308.927 374.728C308.183 374.296 307.379 374.08 306.515 374.08ZM324.285 391H321.261V364.396L324.285 364.036V391ZM328.425 380.596L337.929 391H333.933L324.609 380.632L333.033 372.028H336.921L328.425 380.596ZM375.413 364.036C377.213 364.036 378.929 364.372 380.561 365.044L379.589 367.312C378.389 366.784 377.033 366.52 375.521 366.52C372.881 366.52 371.561 367.564 371.561 369.652V373.504H377.969L377.645 375.916H371.561V391H368.501V375.916H364.001V373.504H368.501V369.724C368.501 368.02 369.149 366.652 370.445 365.62C371.765 364.564 373.421 364.036 375.413 364.036ZM393.039 371.632C395.655 371.632 397.659 372.52 399.051 374.296C400.467 376.048 401.175 378.448 401.175 381.496C401.175 384.472 400.455 386.872 399.015 388.696C397.599 390.496 395.595 391.396 393.003 391.396C390.387 391.396 388.371 390.52 386.955 388.768C385.539 386.992 384.831 384.58 384.831 381.532C384.831 378.532 385.539 376.132 386.955 374.332C388.395 372.532 390.423 371.632 393.039 371.632ZM393.039 374.116C391.383 374.116 390.147 374.728 389.331 375.952C388.515 377.176 388.107 379.036 388.107 381.532C388.107 384.028 388.503 385.888 389.295 387.112C390.111 388.312 391.347 388.912 393.003 388.912C394.659 388.912 395.883 388.312 396.675 387.112C397.491 385.888 397.899 384.016 397.899 381.496C397.899 379 397.491 377.152 396.675 375.952C395.883 374.728 394.671 374.116 393.039 374.116ZM420.205 371.632C420.973 371.632 421.861 371.764 422.869 372.028L422.437 378.472H419.989V374.404H419.809C416.881 374.404 414.805 376.492 413.581 380.668V388.66H417.433V391H407.569V388.66H410.557V374.368H407.569V372.028H412.825L413.401 376.528C414.169 374.896 415.081 373.672 416.137 372.856C417.217 372.04 418.573 371.632 420.205 371.632ZM459.057 371.632C463.641 371.632 465.933 374.92 465.933 381.496C465.933 384.496 465.309 386.896 464.061 388.696C462.813 390.496 461.001 391.396 458.625 391.396C456.561 391.396 454.881 390.676 453.585 389.236V398.272L450.561 398.632V372.028H453.153L453.405 374.692C454.101 373.708 454.929 372.952 455.889 372.424C456.873 371.896 457.929 371.632 459.057 371.632ZM458.337 374.08C457.377 374.08 456.489 374.368 455.673 374.944C454.881 375.52 454.185 376.24 453.585 377.104V386.5C454.089 387.244 454.713 387.832 455.457 388.264C456.225 388.672 457.053 388.876 457.941 388.876C459.525 388.876 460.701 388.276 461.469 387.076C462.261 385.852 462.657 383.992 462.657 381.496C462.657 379 462.309 377.14 461.613 375.916C460.917 374.692 459.825 374.08 458.337 374.08ZM484.963 371.632C485.731 371.632 486.619 371.764 487.627 372.028L487.195 378.472H484.747V374.404H484.567C481.639 374.404 479.563 376.492 478.339 380.668V388.66H482.191V391H472.327V388.66H475.315V374.368H472.327V372.028H477.583L478.159 376.528C478.927 374.896 479.839 373.672 480.895 372.856C481.975 372.04 483.331 371.632 484.963 371.632ZM496.145 382.576C496.217 384.664 496.757 386.236 497.765 387.292C498.797 388.348 500.093 388.876 501.653 388.876C502.589 388.876 503.441 388.744 504.209 388.48C505.001 388.192 505.841 387.76 506.729 387.184L508.133 389.2C507.245 389.896 506.225 390.436 505.073 390.82C503.945 391.204 502.805 391.396 501.653 391.396C498.917 391.396 496.781 390.508 495.245 388.732C493.733 386.932 492.977 384.532 492.977 381.532C492.977 379.636 493.313 377.944 493.985 376.456C494.657 374.944 495.617 373.768 496.865 372.928C498.113 372.064 499.565 371.632 501.221 371.632C503.621 371.632 505.505 372.472 506.873 374.152C508.265 375.808 508.961 378.076 508.961 380.956C508.961 381.508 508.937 382.048 508.889 382.576H496.145ZM501.257 374.116C499.793 374.116 498.605 374.644 497.693 375.7C496.781 376.732 496.265 378.256 496.145 380.272H506.009C505.985 378.28 505.553 376.756 504.713 375.7C503.873 374.644 502.721 374.116 501.257 374.116ZM523.815 371.632C528.399 371.632 530.691 374.92 530.691 381.496C530.691 384.496 530.067 386.896 528.819 388.696C527.571 390.496 525.759 391.396 523.383 391.396C521.319 391.396 519.639 390.676 518.343 389.236V398.272L515.319 398.632V372.028H517.911L518.163 374.692C518.859 373.708 519.687 372.952 520.647 372.424C521.631 371.896 522.687 371.632 523.815 371.632ZM523.095 374.08C522.135 374.08 521.247 374.368 520.431 374.944C519.639 375.52 518.943 376.24 518.343 377.104V386.5C518.847 387.244 519.471 387.832 520.215 388.264C520.983 388.672 521.811 388.876 522.699 388.876C524.283 388.876 525.459 388.276 526.227 387.076C527.019 385.852 527.415 383.992 527.415 381.496C527.415 379 527.067 377.14 526.371 375.916C525.675 374.692 524.583 374.08 523.095 374.08ZM549.721 371.632C550.489 371.632 551.377 371.764 552.385 372.028L551.953 378.472H549.505V374.404H549.325C546.397 374.404 544.321 376.492 543.097 380.668V388.66H546.949V391H537.085V388.66H540.073V374.368H537.085V372.028H542.341L542.917 376.528C543.685 374.896 544.597 373.672 545.653 372.856C546.733 372.04 548.089 371.632 549.721 371.632Z" fill="white"/>
</g>
</g>
</g>
<defs>
<filter id="filter0_f_1_254" x="684" y="-233" width="1063" height="1105" filterUnits="userSpaceOnUse" color-interpolation-filters="sRGB">
<feFlood flood-opacity="0" result="BackgroundImageFix"/>
<feBlend mode="normal" in="SourceGraphic" in2="BackgroundImageFix" result="shape"/>
<feGaussianBlur stdDeviation="100" result="effect1_foregroundBlur_1_254"/>
</filter>
<linearGradient id="paint0_linear_1_254" x1="1031.54" y1="58.0853" x2="1379.49" y2="451.521" gradientUnits="userSpaceOnUse">
<stop stop-color="#762BFF"/>
<stop offset="1" stop-color="#00E1FF"/>
</linearGradient>
<clipPath id="clip0_1_254">
<rect width="1280" height="640" fill="white"/>
</clipPath>
<clipPath id="clip1_1_254">
<rect width="1120" height="48" fill="white" transform="translate(80 240)"/>
</clipPath>
</defs>
</svg>
