<svg xmlns="http://www.w3.org/2000/svg" width="1280" height="320" fill="none"><g clip-path="url(#a)"><path fill="#000" d="M0 0h1280v320H0z"/><g filter="url(#b)"><path fill="url(#c)" d="M1279.5 434.97c-81.65 54.77-196.48 66.8-269.8 14.59-73.32-52.23-158.08-221.46-170.1-327.93-12.03-106.46 17.26-261 97.92-310.89 80.67-49.9 292.39-40.16 386.06 11.54 93.68 51.7 183.34 196.54 176 298.66"/></g></g><g fill="#fff" clip-path="url(#d)"><path d="M75.36 73c4.67 0 7.84 1.53 9.52 4.6 1.7 3.04 2.56 7.04 2.56 12 0 3.57-.16 6.44-.48 8.6-.32 2.13-.9 3.73-1.76 4.8a4.35 4.35 0 0 1-3.64 1.64 3.83 3.83 0 0 1-2.64-.96 5.86 5.86 0 0 1-1.6-2.32 6.1 6.1 0 0 1-.48-2.44h-.16c-1.07 2.61-2.9 3.92-5.48 3.92-2.08 0-3.6-.81-4.56-2.44-.96-1.65-1.44-3.9-1.44-6.72 0-3.44.67-6.01 2-7.72 1.36-1.73 3.3-2.6 5.84-2.6a11.06 11.06 0 0 1 5.64 1.48v11.84c0 1.97.24 3.35.72 4.12.5.75 1.2 1.12 2.08 1.12.77 0 1.33-.48 1.68-1.44.37-.99.6-2.24.68-3.76.08-1.55.12-3.7.12-6.44 0-3.04-.21-5.57-.64-7.6a8.9 8.9 0 0 0-2.48-4.88c-1.25-1.23-3.07-1.84-5.44-1.84-1.52 0-3.03.27-4.52.8-1.5.53-3.01 1.5-4.56 2.88l-1.96-2.28a17.79 17.79 0 0 1 5.4-3.28 15.46 15.46 0 0 1 5.6-1.08Zm-2.2 12.84c-1.76 0-2.99.63-3.68 1.88-.7 1.25-1.04 3.24-1.04 5.96 0 2.1.24 3.75.72 4.92.48 1.15 1.3 1.72 2.44 1.72.85 0 1.55-.19 2.08-.56.56-.4.96-.81 1.2-1.24.27-.45.55-1.03.84-1.72V86.4a5.81 5.81 0 0 0-2.56-.56ZM98.74 73c1.68 0 3.15.33 4.4 1a6.96 6.96 0 0 1 2.92 2.76c.67 1.15 1 2.45 1 3.92 0 1.7-.4 3.36-1.2 4.96a23.36 23.36 0 0 1-3.76 5.28 116.3 116.3 0 0 1-7.36 7.2h12.96l-.4 2.88H90.9v-2.72c3.6-3.44 6.27-6.13 8-8.08a22.69 22.69 0 0 0 3.64-5c.67-1.39 1-2.85 1-4.4 0-1.55-.44-2.76-1.32-3.64a4.92 4.92 0 0 0-3.64-1.32c-1.3 0-2.4.23-3.28.68a8.81 8.81 0 0 0-2.64 2.24l-2.32-1.8a10.68 10.68 0 0 1 3.64-3c1.36-.64 2.95-.96 4.76-.96Zm33.23-1.56V101H129l-.32-2.76a7.84 7.84 0 0 1-2.68 2.4c-1.02.53-2.1.8-3.28.8-2.67 0-4.68-.97-6.04-2.92-1.33-1.95-2-4.63-2-8.04 0-2.1.33-3.99 1-5.64a8.9 8.9 0 0 1 2.84-3.92 7.03 7.03 0 0 1 4.4-1.44A7.2 7.2 0 0 1 128.6 82V71.04l3.36.4ZM123.8 82.2c-1.76 0-3.12.7-4.08 2.08-.94 1.39-1.4 3.45-1.4 6.2 0 2.72.42 4.79 1.28 6.2a4.24 4.24 0 0 0 3.8 2.08c2 0 3.73-1.12 5.2-3.36V84.92a6.05 6.05 0 0 0-2.12-2 5.25 5.25 0 0 0-2.68-.72Zm24.14-12.12c.75 0 1.35.23 1.8.68.46.43.68.99.68 1.68 0 .7-.22 1.27-.68 1.72a2.5 2.5 0 0 1-1.8.64c-.72 0-1.3-.21-1.76-.64a2.4 2.4 0 0 1-.64-1.72c0-.7.22-1.25.64-1.68a2.38 2.38 0 0 1 1.76-.68Zm2.68 28.24h5.92V101H140.8v-2.68h6.48V82.6H141v-2.68h9.64v18.4Zm31.47-17.44c-.8.27-1.67.44-2.6.52-.94.05-2.12.08-3.56.08 2.45 1.12 3.68 2.9 3.68 5.32a6.8 6.8 0 0 1-2.12 5.2c-1.42 1.3-3.35 1.96-5.8 1.96a9.8 9.8 0 0 1-3.16-.44c-.32.24-.59.55-.8.92-.19.37-.28.75-.28 1.12 0 1.2.93 1.8 2.8 1.8h3.8a9 9 0 0 1 3.76.76 6.15 6.15 0 0 1 2.68 2.04c.66.88 1 1.85 1 2.92 0 2.05-.88 3.63-2.64 4.72-1.74 1.12-4.2 1.68-7.4 1.68-3.26 0-5.55-.5-6.88-1.52-1.34-1.01-2-2.63-2-4.84h3.04c0 .88.16 1.57.48 2.08.34.53.93.92 1.76 1.16.85.27 2.05.4 3.6.4 2.26 0 3.93-.3 5-.88 1.1-.59 1.64-1.45 1.64-2.6 0-.96-.44-1.7-1.32-2.24a6.75 6.75 0 0 0-3.4-.76h-3.76c-1.74 0-3.06-.37-3.96-1.12a3.64 3.64 0 0 1-.76-4.84 5.3 5.3 0 0 1 1.72-1.72 6.6 6.6 0 0 1-2.68-2.32 6.8 6.8 0 0 1-.84-3.48 6.86 6.86 0 0 1 4-6.36 9.7 9.7 0 0 1 4.4-.96c2.4 0 4.22-.13 5.48-.4 1.25-.27 2.62-.72 4.12-1.36l1 3.16Zm-10.64 1.08c-1.63 0-2.86.44-3.68 1.32a4.84 4.84 0 0 0-1.24 3.52c0 1.5.41 2.7 1.24 3.6.85.88 2.1 1.32 3.76 1.32 1.5 0 2.62-.43 3.4-1.28.8-.88 1.2-2.1 1.2-3.68 0-3.2-1.56-4.8-4.68-4.8Zm24.46-11.88c.75 0 1.35.23 1.8.68.46.43.68.99.68 1.68 0 .7-.22 1.27-.68 1.72a2.5 2.5 0 0 1-1.8.64c-.72 0-1.3-.21-1.76-.64a2.4 2.4 0 0 1-.64-1.72c0-.7.22-1.25.64-1.68a2.38 2.38 0 0 1 1.76-.68Zm2.68 28.24h5.92V101h-15.76v-2.68h6.48V82.6h-6.28v-2.68h9.64v18.4Zm30.07 1.6c-.72.48-1.6.85-2.64 1.12-1.02.27-2.03.4-3.04.4-2.22 0-3.95-.57-5.2-1.72a6.01 6.01 0 0 1-1.88-4.6V82.56h-4.84v-2.64h4.84v-4.76l3.36-.4v5.16h7.32l-.44 2.64h-6.88v12.52c0 1.2.32 2.1.96 2.68.64.59 1.66.88 3.08.88 1.44 0 2.78-.33 4.04-1l1.32 2.28Zm14.42-1.24c1.6 0 2.87-.3 3.8-.92a2.8 2.8 0 0 0 1.4-2.44c0-.7-.12-1.25-.36-1.68a3.04 3.04 0 0 0-1.44-1.2c-.72-.37-1.81-.75-3.28-1.12-2.45-.61-4.27-1.35-5.44-2.2-1.17-.88-1.76-2.17-1.76-3.88a4.9 4.9 0 0 1 2.2-4.2c1.47-1.04 3.4-1.56 5.8-1.56 2.93 0 5.5.77 7.68 2.32l-1.52 2.32c-.88-.61-1.8-1.08-2.76-1.4a9.75 9.75 0 0 0-3.32-.52c-3.04 0-4.56.92-4.56 2.76 0 .64.16 1.16.48 1.56.35.4.9.76 1.64 1.08.77.3 1.92.65 3.44 1.08 2.3.61 4 1.4 5.12 2.36 1.15.93 1.72 2.3 1.72 4.12 0 2.1-.85 3.68-2.56 4.72a11.86 11.86 0 0 1-6.28 1.56c-3.3 0-6.05-.95-8.24-2.84l1.88-2.2a9.93 9.93 0 0 0 6.36 2.28Zm14.9 5.24 17.08-35.28 2.69 1.28-17.05 35.2-2.71-1.2Zm35.3-24.44c5.1 0 7.65 3.65 7.65 10.96 0 3.33-.7 6-2.08 8-1.39 2-3.4 3-6.04 3-2.3 0-4.16-.8-5.6-2.4v10.04l-3.36.4V79.92h2.88l.28 2.96a8.26 8.26 0 0 1 2.76-2.52 7.33 7.33 0 0 1 3.52-.88Zm-.8 2.72c-1.06 0-2.04.32-2.95.96a9.96 9.96 0 0 0-2.32 2.4V96a6.34 6.34 0 0 0 2.08 1.96 5.8 5.8 0 0 0 2.76.68c1.76 0 3.07-.67 3.92-2 .88-1.36 1.32-3.43 1.32-6.2s-.39-4.84-1.16-6.2a3.9 3.9 0 0 0-3.64-2.04Zm29.6-2.72c.85 0 1.83.15 2.95.44l-.48 7.16h-2.72v-4.52h-.2c-3.25 0-5.56 2.32-6.92 6.96v8.88H319v2.6h-10.96v-2.6h3.32V82.52h-3.32v-2.6h5.84l.64 5a10.88 10.88 0 0 1 3.04-4.08 7.33 7.33 0 0 1 4.52-1.36Zm17.78 0c2.9 0 5.13.99 6.68 2.96 1.57 1.95 2.36 4.61 2.36 8 0 3.3-.8 5.97-2.4 8-1.57 2-3.8 3-6.68 3-2.9 0-5.15-.97-6.72-2.92-1.57-1.97-2.36-4.65-2.36-8.04 0-3.33.79-6 2.36-8 1.6-2 3.85-3 6.76-3Zm0 2.76c-1.84 0-3.22.68-4.12 2.04-.9 1.36-1.36 3.43-1.36 6.2s.44 4.84 1.32 6.2c.9 1.33 2.28 2 4.12 2 1.84 0 3.2-.67 4.08-2 .9-1.36 1.36-3.44 1.36-6.24 0-2.77-.45-4.83-1.36-6.16-.88-1.36-2.23-2.04-4.04-2.04Zm25.38-2.76c5.1 0 7.64 3.65 7.64 10.96 0 3.33-.7 6-2.08 8-1.38 2-3.4 3-6.04 3-2.3 0-4.16-.8-5.6-2.4v10.04l-3.36.4V79.92h2.88l.28 2.96a8.24 8.24 0 0 1 2.76-2.52 7.33 7.33 0 0 1 3.52-.88Zm-.8 2.72c-1.06 0-2.05.32-2.96.96a9.94 9.94 0 0 0-2.32 2.4V96a6.33 6.33 0 0 0 2.08 1.96 5.8 5.8 0 0 0 2.76.68c1.76 0 3.07-.67 3.92-2 .88-1.36 1.32-3.43 1.32-6.2s-.38-4.84-1.16-6.2a3.9 3.9 0 0 0-3.64-2.04Zm29.59-2.72c.85 0 1.84.15 2.96.44l-.48 7.16h-2.72v-4.52h-.2c-3.26 0-5.56 2.32-6.92 6.96v8.88h4.28v2.6H380v-2.6h3.32V82.52H380v-2.6h5.84l.64 5a10.9 10.9 0 0 1 3.04-4.08c1.2-.9 2.7-1.36 4.52-1.36Z"/><path fill-rule="evenodd" d="m1059.05 64.78-5.59 45.2a.94.94 0 0 0 .22.7.9.9 0 0 0 .67.3h6.16a.9.9 0 0 0 .59-.22.88.88 0 0 0 .3-.56l5.59-45.2a.94.94 0 0 0-.22-.7.9.9 0 0 0-.67-.3h-6.16a.88.88 0 0 0-.59.22.92.92 0 0 0-.3.56Zm66.67 0-5.59 45.2a.78.78 0 0 0 .03.38c.04.12.1.23.18.32a.95.95 0 0 0 .67.3h6.16c.22 0 .43-.08.6-.22a.92.92 0 0 0 .29-.56l5.59-45.2a.78.78 0 0 0-.03-.38.97.97 0 0 0-.18-.32.93.93 0 0 0-.67-.3h-6.16a.88.88 0 0 0-.59.22.88.88 0 0 0-.3.56Zm-158.51 45.14v-4.38c0-.49.18-.91.54-1.27 2.14-2.2 5.72-6.14 10.74-11.8l4.37-4.92c4.2-4.73 6.3-8.3 6.3-10.74 0-1.82-.67-3.3-1.99-4.45a7.53 7.53 0 0 0-5.13-1.72c-2.1 0-3.8.57-5.1 1.72a5.82 5.82 0 0 0-1.94 4.58v1.46c0 .7-.36 1.06-1.1 1.06h-5.8c-.74 0-1.1-.35-1.1-1.06v-2.59c.1-2.39.8-4.47 2.12-6.24a12.91 12.91 0 0 1 5.37-4.11 18.9 18.9 0 0 1 7.55-1.46c3.06 0 5.72.55 8 1.66a12.6 12.6 0 0 1 5.27 4.55 11.75 11.75 0 0 1 1.84 6.46c0 3.63-1.98 7.81-5.94 12.54a136.52 136.52 0 0 1-5.2 6.04c-2 2.2-4 4.4-6.02 6.57l-1.91 2.06c-.14.13-.19.24-.14.33.05.09.16.13.34.13h18.87c.73 0 1.1.36 1.1 1.06v4.52c0 .7-.37 1.06-1.1 1.06H968.3c-.73 0-1.1-.36-1.1-1.06m42.51-.02V65.09c0-.72.37-1.08 1.11-1.08h16.7c3.29 0 6.19.56 8.7 1.68a13.23 13.23 0 0 1 5.81 4.8 12.93 12.93 0 0 1 2.05 7.28v19.46c0 2.77-.68 5.2-2.05 7.28a13.21 13.21 0 0 1-5.81 4.8 21.17 21.17 0 0 1-8.7 1.68h-16.7c-.74 0-1.11-.36-1.11-1.08m8.49-5.63h9.67c2.46 0 4.42-.75 5.88-2.25s2.21-3.5 2.26-6V79.02c0-2.55-.74-4.57-2.23-6.07-1.48-1.5-3.48-2.25-5.98-2.25h-9.6c-.28 0-.42.14-.42.4v32.75c0 .27.14.4.42.4Zm66.35 5.74a14.34 14.34 0 0 1-6.05-5.6 16.08 16.08 0 0 1-2.13-8.3V79.88c0-3.17.71-5.96 2.13-8.35a14.44 14.44 0 0 1 6.05-5.56 19.89 19.89 0 0 1 9.08-1.98c3.39 0 6.38.65 8.97 1.94a14.85 14.85 0 0 1 6.02 5.3 13.83 13.83 0 0 1 2.13 7.58v.26c0 .72-.37 1.08-1.1 1.08h-5.71c-.32 0-.59-.06-.79-.17-.21-.11-.31-.26-.31-.44v-.53c0-2.42-.84-4.4-2.51-5.97-1.67-1.56-3.91-2.35-6.7-2.35-2.8 0-5.04.82-6.74 2.45-1.7 1.63-2.54 3.79-2.54 6.47v16.76c0 2.68.89 4.84 2.68 6.47s4.1 2.44 6.94 2.44c2.75 0 4.92-.7 6.5-2.1 1.58-1.41 2.37-3.35 2.37-5.8v-4.1c0-.26-.14-.4-.41-.4h-8.11c-.74 0-1.1-.35-1.1-1.07V87.4c0-.72.36-1.08 1.1-1.08h15.33c.73 0 1.1.36 1.1 1.08v8.31c0 5.14-1.55 9.14-4.64 12-3.1 2.86-7.26 4.29-12.48 4.29a19.9 19.9 0 0 1-9.08-1.98m91.82-43.92v4.63c0 .71-.37 1.07-1.11 1.07h-12.41c-.27 0-.41.13-.41.4v38.72c0 .72-.37 1.08-1.11 1.08h-5.82c-.74 0-1.11-.36-1.11-1.08V72.2c0-.27-.14-.4-.42-.4h-11.92c-.74 0-1.11-.36-1.11-1.07V66.1c0-.72.37-1.08 1.11-1.08h33.2c.74 0 1.11.36 1.11 1.08Zm13.4 44.22a13.68 13.68 0 0 1-6.07-4.73 12.03 12.03 0 0 1-2.12-7.07v-1.4c0-.72.36-1.08 1.09-1.08h5.63c.73 0 1.1.34 1.1 1v1.08c0 2.06.92 3.77 2.78 5.13 1.85 1.36 4.31 2.04 7.37 2.04 2.79 0 4.89-.58 6.31-1.74a5.54 5.54 0 0 0 2.13-4.49 4.6 4.6 0 0 0-1.17-3.18 10.8 10.8 0 0 0-3.32-2.38 73.1 73.1 0 0 0-6.49-2.68 68.09 68.09 0 0 1-7.89-3.29 14.6 14.6 0 0 1-5.04-4.2 10.54 10.54 0 0 1-2.02-6.6c0-3.93 1.46-7.03 4.39-9.31 2.92-2.28 6.83-3.42 11.73-3.42 3.43 0 6.46.58 9.09 1.74a14.42 14.42 0 0 1 6.14 4.86 12.23 12.23 0 0 1 2.2 7.2v.88c0 .72-.37 1.07-1.1 1.07h-5.63c-.28.02-.56-.07-.79-.23-.2-.16-.31-.35-.31-.57v-.74c0-2.1-.88-3.87-2.64-5.33-1.76-1.45-4.19-2.18-7.3-2.18-2.52 0-4.47.52-5.87 1.54a5.08 5.08 0 0 0-2.09 4.36c0 1.34.36 2.44 1.09 3.29a9.9 9.9 0 0 0 3.3 2.31c1.46.7 3.73 1.58 6.79 2.65 3.25 1.2 5.84 2.3 7.79 3.28 1.95 1 3.66 2.4 5.01 4.13a10.34 10.34 0 0 1 2.09 6.6c0 2.6-.69 4.88-2.06 6.87a13.27 13.27 0 0 1-5.9 4.63 22.9 22.9 0 0 1-9.06 1.64c-3.47 0-6.53-.56-9.16-1.68Z" clip-rule="evenodd"/></g><path fill="#fff" d="M69.8 240.66 67.82 247h-3.1l8.1-24.8h3.96l8.06 24.8H81.6l-1.98-6.34H69.8Zm9-2.59-4.07-13.21-4.1 13.21h8.17Zm40.47-10.44c4.58 0 6.87 3.29 6.87 9.87 0 3-.62 5.4-1.87 7.2a6.2 6.2 0 0 1-5.43 2.7 6.47 6.47 0 0 1-5.04-2.16v9.03l-3.03.36v-26.6h2.6l.25 2.66a7.42 7.42 0 0 1 2.48-2.27 6.6 6.6 0 0 1 3.17-.79Zm-.72 2.45c-.96 0-1.85.29-2.67.86a9.11 9.11 0 0 0-2.08 2.16v9.4a5.7 5.7 0 0 0 1.87 1.76c.77.41 1.6.62 2.48.62 1.59 0 2.76-.6 3.53-1.8.8-1.23 1.19-3.09 1.19-5.58 0-2.5-.35-4.36-1.05-5.58a3.5 3.5 0 0 0-3.27-1.84Zm26.62-2.45c.77 0 1.66.13 2.67.4l-.43 6.44h-2.45v-4.07h-.18c-2.93 0-5 2.1-6.23 6.27v7.99h3.85V247h-9.86v-2.34h2.99v-14.3h-3v-2.33h5.26l.58 4.5a9.8 9.8 0 0 1 2.74-3.67 6.56 6.56 0 0 1 4.06-1.23Zm16.01 0c2.62 0 4.62.89 6.01 2.67 1.42 1.75 2.13 4.15 2.13 7.2 0 2.97-.72 5.37-2.16 7.2-1.42 1.8-3.42 2.7-6.02 2.7-2.61 0-4.63-.88-6.04-2.63-1.42-1.78-2.13-4.19-2.13-7.24 0-3 .71-5.4 2.13-7.2 1.44-1.8 3.46-2.7 6.08-2.7Zm0 2.49c-1.66 0-2.9.6-3.7 1.83-.82 1.23-1.23 3.09-1.23 5.58 0 2.5.4 4.36 1.19 5.58.81 1.2 2.05 1.8 3.7 1.8 1.66 0 2.88-.6 3.68-1.8.81-1.22 1.22-3.1 1.22-5.61 0-2.5-.4-4.35-1.22-5.55-.8-1.22-2-1.83-3.64-1.83Zm22.85-2.49c4.58 0 6.87 3.29 6.87 9.87 0 3-.62 5.4-1.87 7.2a6.2 6.2 0 0 1-5.44 2.7 6.47 6.47 0 0 1-5.04-2.16v9.03l-3.02.36v-26.6h2.6l.24 2.66a7.42 7.42 0 0 1 2.49-2.27 6.6 6.6 0 0 1 3.17-.79Zm-.72 2.45c-.96 0-1.85.29-2.67.86a9.15 9.15 0 0 0-2.09 2.16v9.4a5.7 5.7 0 0 0 1.88 1.76c.76.41 1.6.62 2.48.62 1.58 0 2.76-.6 3.53-1.8.79-1.23 1.19-3.09 1.19-5.58 0-2.5-.35-4.36-1.05-5.58a3.5 3.5 0 0 0-3.27-1.84Zm16.22 8.5c.07 2.08.61 3.66 1.62 4.71a5.21 5.21 0 0 0 3.89 1.59c.93 0 1.78-.14 2.55-.4.8-.29 1.63-.72 2.52-1.3l1.4 2.02c-.88.7-1.9 1.24-3.05 1.62-1.13.38-2.27.58-3.42.58-2.74 0-4.88-.9-6.41-2.67-1.51-1.8-2.27-4.2-2.27-7.2 0-1.9.34-3.59 1-5.07a8.1 8.1 0 0 1 2.89-3.53 7.46 7.46 0 0 1 4.35-1.3c2.4 0 4.29.84 5.66 2.52 1.39 1.66 2.08 3.93 2.08 6.8 0 .56-.02 1.1-.07 1.63h-12.74Zm5.11-8.46c-1.46 0-2.65.52-3.56 1.58-.92 1.03-1.43 2.56-1.55 4.57h9.86c-.02-1.99-.45-3.51-1.3-4.57a4.18 4.18 0 0 0-3.45-1.58Zm26.88-2.49c.77 0 1.65.13 2.66.4l-.43 6.44h-2.45v-4.07h-.18c-2.93 0-5 2.1-6.23 6.27v7.99h3.86V247h-9.87v-2.34h2.99v-14.3h-2.99v-2.33h5.26l.57 4.5a9.8 9.8 0 0 1 2.74-3.67 6.56 6.56 0 0 1 4.07-1.23Zm36.83 17.28a6.1 6.1 0 0 0 3.42-.83 2.52 2.52 0 0 0 1.26-2.2c0-.62-.1-1.12-.32-1.5a2.74 2.74 0 0 0-1.3-1.08c-.65-.34-1.63-.68-2.95-1.01-2.2-.55-3.84-1.21-4.9-1.98a4.13 4.13 0 0 1-1.58-3.5 4.4 4.4 0 0 1 1.98-3.77c1.32-.94 3.06-1.4 5.22-1.4 2.64 0 4.94.69 6.91 2.08l-1.36 2.09a9.7 9.7 0 0 0-2.49-1.26 8.78 8.78 0 0 0-2.99-.47c-2.73 0-4.1.83-4.1 2.48 0 .58.14 1.05.43 1.4.31.37.8.7 1.48.98.7.26 1.73.59 3.1.97 2.06.55 3.6 1.26 4.6 2.13 1.03.84 1.55 2.07 1.55 3.7 0 1.9-.77 3.32-2.3 4.25-1.54.94-3.43 1.4-5.66 1.4-2.97 0-5.45-.85-7.41-2.55l1.69-1.98a8.94 8.94 0 0 0 5.72 2.05Zm29.5-24.51V247h-2.66l-.28-2.48c-.7.96-1.5 1.68-2.42 2.16-.9.48-1.9.72-2.95.72-2.4 0-4.2-.88-5.43-2.63-1.2-1.75-1.8-4.17-1.8-7.24 0-1.9.3-3.59.9-5.07a8.02 8.02 0 0 1 2.55-3.53 6.33 6.33 0 0 1 3.96-1.3c2.1 0 3.8.76 5.11 2.27v-9.86l3.03.36Zm-7.34 9.68a4.2 4.2 0 0 0-3.67 1.87c-.84 1.25-1.26 3.11-1.26 5.58 0 2.45.39 4.31 1.16 5.58a3.81 3.81 0 0 0 3.41 1.87c1.8 0 3.37-1 4.69-3.02v-9.43a5.44 5.44 0 0 0-1.91-1.8 4.72 4.72 0 0 0-2.42-.65ZM308.3 247h-3.03v-26.6l3.03-.36V247Zm4.13-10.4 9.5 10.4h-3.99l-9.32-10.37 8.42-8.6h3.9l-8.5 8.57Zm47-16.56c1.8 0 3.5.33 5.14 1l-.97 2.27a10 10 0 0 0-4.07-.79c-2.64 0-3.96 1.04-3.96 3.13v3.85h6.4l-.31 2.42h-6.09V247h-3.06v-15.08H348v-2.42h4.5v-3.78a5 5 0 0 1 1.94-4.1 7.7 7.7 0 0 1 4.97-1.58Zm17.62 7.6c2.61 0 4.62.88 6.01 2.66 1.42 1.75 2.13 4.15 2.13 7.2 0 2.97-.73 5.37-2.17 7.2-1.41 1.8-3.41 2.7-6 2.7-2.62 0-4.64-.88-6.06-2.63-1.41-1.78-2.12-4.19-2.12-7.24 0-3 .7-5.4 2.13-7.2 1.44-1.8 3.46-2.7 6.08-2.7Zm0 2.48c-1.66 0-2.9.6-3.7 1.83-.82 1.23-1.23 3.09-1.23 5.58 0 2.5.4 4.36 1.19 5.58.81 1.2 2.05 1.8 3.7 1.8 1.66 0 2.88-.6 3.68-1.8.81-1.22 1.22-3.1 1.22-5.61 0-2.5-.4-4.35-1.22-5.55-.8-1.22-2-1.83-3.64-1.83Zm27.16-2.49c.77 0 1.66.13 2.67.4l-.43 6.44H404v-4.07h-.18c-2.93 0-5 2.1-6.23 6.27v7.99h3.85V247h-9.86v-2.34h2.99v-14.3h-3v-2.33h5.26l.58 4.5a9.8 9.8 0 0 1 2.74-3.67 6.56 6.56 0 0 1 4.06-1.23Zm38.86 0c4.58 0 6.87 3.29 6.87 9.87 0 3-.62 5.4-1.87 7.2a6.2 6.2 0 0 1-5.44 2.7 6.47 6.47 0 0 1-5.04-2.16v9.03l-3.02.36v-26.6h2.6l.24 2.66a7.42 7.42 0 0 1 2.49-2.27 6.6 6.6 0 0 1 3.17-.79Zm-.72 2.45c-.96 0-1.85.29-2.67.86a9.15 9.15 0 0 0-2.09 2.16v9.4a5.7 5.7 0 0 0 1.88 1.76c.77.41 1.6.62 2.48.62 1.58 0 2.76-.6 3.53-1.8.8-1.23 1.19-3.09 1.19-5.58 0-2.5-.35-4.36-1.05-5.58a3.5 3.5 0 0 0-3.27-1.84Zm26.62-2.45c.77 0 1.66.13 2.67.4l-.44 6.44h-2.44v-4.07h-.18c-2.93 0-5 2.1-6.23 6.27v7.99h3.85V247h-9.86v-2.34h2.99v-14.3h-3v-2.33h5.26l.58 4.5a9.8 9.8 0 0 1 2.73-3.67 6.56 6.56 0 0 1 4.07-1.23Zm11.19 10.95c.07 2.08.6 3.66 1.62 4.71a5.21 5.21 0 0 0 3.88 1.59c.94 0 1.8-.14 2.56-.4.8-.29 1.63-.72 2.52-1.3l1.4 2.02c-.88.7-1.9 1.24-3.06 1.62-1.13.38-2.26.58-3.42.58-2.73 0-4.87-.9-6.4-2.67-1.52-1.8-2.27-4.2-2.27-7.2 0-1.9.33-3.59 1-5.07a8.1 8.1 0 0 1 2.88-3.53 7.46 7.46 0 0 1 4.36-1.3c2.4 0 4.28.84 5.65 2.52 1.4 1.66 2.1 3.93 2.1 6.8 0 .56-.03 1.1-.08 1.63h-12.75Zm5.1-8.46c-1.46 0-2.64.52-3.56 1.58-.9 1.03-1.43 2.56-1.55 4.57h9.87c-.02-1.99-.46-3.51-1.3-4.57a4.18 4.18 0 0 0-3.45-1.58Zm22.56-2.49c4.59 0 6.88 3.29 6.88 9.87 0 3-.62 5.4-1.87 7.2a6.2 6.2 0 0 1-5.44 2.7 6.47 6.47 0 0 1-5.04-2.16v9.03l-3.02.36v-26.6h2.6l.24 2.66a7.42 7.42 0 0 1 2.49-2.27 6.6 6.6 0 0 1 3.17-.79Zm-.71 2.45c-.97 0-1.85.29-2.67.86-.8.58-1.49 1.3-2.09 2.16v9.4a5.7 5.7 0 0 0 1.88 1.76c.76.41 1.6.62 2.48.62 1.58 0 2.76-.6 3.53-1.8.79-1.23 1.19-3.09 1.19-5.58 0-2.5-.35-4.36-1.05-5.58a3.5 3.5 0 0 0-3.27-1.84Zm26.62-2.45c.77 0 1.66.13 2.66.4l-.43 6.44h-2.45v-4.07h-.17c-2.93 0-5 2.1-6.23 6.27v7.99h3.85V247h-9.87v-2.34h3v-14.3h-3v-2.33h5.26l.58 4.5a9.8 9.8 0 0 1 2.73-3.67 6.56 6.56 0 0 1 4.07-1.23Z"/><defs><clipPath id="a"><path fill="#fff" d="M0 0h1280v320H0z"/></clipPath><clipPath id="d"><path fill="#fff" d="M64 64h1152v48H64z"/></clipPath><linearGradient id="c" x1="984.54" x2="1332.49" y1="-130.91" y2="262.52" gradientUnits="userSpaceOnUse"><stop stop-color="#762BFF"/><stop offset="1" stop-color="#00E1FF"/></linearGradient><filter id="b" width="1063" height="1105" x="637" y="-422" color-interpolation-filters="sRGB" filterUnits="userSpaceOnUse"><feFlood flood-opacity="0" result="BackgroundImageFix"/><feBlend in="SourceGraphic" in2="BackgroundImageFix" result="shape"/><feGaussianBlur result="effect1_foregroundBlur_1_254" stdDeviation="100"/></filter></defs></svg>
